<?xml version="1.0" standalone="no"?>
<!DOCTYPE svg PUBLIC "-//W3C//DTD SVG 20010904//EN"
 "http://www.w3.org/TR/2001/REC-SVG-20010904/DTD/svg10.dtd">
<svg version="1.0" xmlns="http://www.w3.org/2000/svg"
 width="1536.000000pt" height="1024.000000pt" viewBox="0 0 1536.000000 1024.000000"
 preserveAspectRatio="xMidYMid meet">

<g transform="translate(0.000000,1024.000000) scale(0.100000,-0.100000)"
fill="#000000" stroke="none">
<path d="M2865 7708 l-80 -83 83 80 c76 74 87 85 79 85 -1 0 -38 -37 -82 -82z"/>
<path d="M3000 7765 c13 -14 26 -25 28 -25 3 0 -5 11 -18 25 -13 14 -26 25
-28 25 -3 0 5 -11 18 -25z"/>
<path d="M3150 7605 c13 -14 26 -25 28 -25 3 0 -5 11 -18 25 -13 14 -26 25
-28 25 -3 0 5 -11 18 -25z"/>
<path d="M2595 7430 c-66 -66 -117 -120 -115 -120 3 0 59 54 125 120 66 66
117 120 115 120 -3 0 -59 -54 -125 -120z"/>
<path d="M2649 7008 c-172 -178 -395 -407 -496 -511 l-183 -187 0 232 c0 225
1 232 22 257 l22 26 -27 -26 -28 -25 -2 -263 -2 -262 174 178 c335 343 498
509 667 685 l171 176 244 -244 c133 -134 246 -243 250 -242 14 5 229 239 229
248 0 25 -29 2 -128 -101 l-107 -111 -238 246 c-131 135 -242 246 -246 246 -5
0 -149 -145 -322 -322z"/>
<path d="M2419 7253 l-24 -28 28 24 c25 23 32 31 24 31 -2 0 -14 -12 -28 -27z"/>
<path d="M2370 7200 c-9 -6 -10 -10 -3 -10 6 0 15 5 18 10 8 12 4 12 -15 0z"/>
<path d="M2250 7076 l-95 -101 103 100 c56 55 102 101 102 102 0 12 -28 -14
-110 -101z"/>
<path d="M2114 6938 l-29 -33 33 29 c17 17 32 31 32 33 0 8 -8 1 -36 -29z"/>
<path d="M2034 6858 l-29 -33 33 29 c17 17 32 31 32 33 0 8 -8 1 -36 -29z"/>
<path d="M2815 6650 l-70 -70 100 -102 c55 -57 197 -202 315 -323 118 -121
308 -314 420 -430 245 -250 618 -631 788 -805 l123 -125 125 128 126 128 -99
102 c-54 56 -373 386 -709 732 -335 347 -654 676 -708 733 l-99 102 -121 0
-122 0 -69 -70z"/>
<path d="M3630 6620 c0 -6 98 -111 218 -233 413 -423 909 -932 997 -1025 48
-51 91 -91 94 -90 4 2 58 57 121 122 78 82 110 121 100 124 -8 2 -67 54 -130
116 -63 61 -100 95 -82 75 18 -19 29 -39 25 -44 -5 -4 -3 -5 3 -2 14 8 57 -36
47 -48 -5 -4 -3 -5 3 -2 7 4 17 1 23 -7 7 -8 8 -16 4 -18 -4 -3 -3 -3 4 -2 6
2 16 -3 22 -10 8 -9 5 -12 -12 -12 -32 1 -28 -27 7 -42 25 -11 27 -14 15 -30
-13 -16 -12 -16 5 -2 17 14 17 15 -8 36 -22 20 -23 23 -7 21 11 -1 19 -6 18
-11 -2 -9 3 -11 34 -15 7 0 -23 -37 -66 -81 -43 -44 -81 -77 -84 -74 -3 3 3
13 14 22 31 26 75 82 75 95 -1 7 -8 0 -16 -15 -8 -16 -22 -29 -32 -29 -23 -2
-24 -2 -43 6 -12 4 -21 -2 -32 -23 -13 -28 -13 -29 5 -24 11 2 17 10 14 18 -8
21 9 25 30 8 10 -9 13 -12 6 -9 -20 11 -42 -25 -30 -49 8 -14 5 -23 -11 -40
l-22 -21 -132 135 c-73 74 -299 306 -502 515 -533 549 -658 675 -667 675 -4 0
-8 -5 -8 -10z"/>
<path d="M1725 6160 c0 -234 1 -329 2 -212 2 116 2 308 0 425 -1 116 -2 21 -2
-213z"/>
<path d="M1540 6395 c-24 -25 -42 -45 -39 -45 3 0 25 20 49 45 24 25 42 45 39
45 -3 0 -25 -20 -49 -45z"/>
<path d="M5773 6401 c-68 -23 -117 -61 -150 -119 -25 -41 -28 -57 -28 -132 0
-75 3 -91 28 -132 41 -70 86 -102 274 -193 238 -117 270 -148 261 -263 -7
-106 -85 -168 -208 -166 -96 2 -172 34 -242 104 -46 46 -60 69 -76 121 -11 35
-24 63 -28 62 -10 -3 -18 -266 -9 -303 l7 -25 20 28 c25 35 55 35 155 0 105
-36 249 -38 335 -4 116 45 182 142 181 267 -1 146 -65 215 -307 333 -199 98
-238 125 -261 185 -54 140 91 260 257 212 101 -29 183 -112 211 -213 6 -24 17
-43 24 -43 10 0 13 33 13 145 0 110 -3 145 -13 145 -7 0 -18 -9 -25 -20 -16
-26 -30 -25 -125 5 -96 31 -216 34 -294 6z"/>
<path d="M12463 6277 c-28 -72 -93 -233 -143 -357 -50 -124 -112 -277 -138
-340 -53 -130 -87 -176 -138 -186 -75 -14 -26 -24 116 -24 143 0 193 11 112
24 -52 8 -76 36 -69 78 3 18 23 78 44 133 l40 100 190 3 191 2 46 -115 c64
-159 61 -189 -18 -202 -86 -14 -21 -23 164 -23 110 0 200 3 200 8 0 4 -21 14
-48 22 -58 19 -71 41 -187 324 -256 629 -280 686 -295 686 -10 0 -32 -45 -67
-133z m104 -310 l82 -202 -85 -3 c-46 -1 -122 -1 -168 0 l-83 3 81 207 c44
114 83 204 86 202 3 -3 42 -96 87 -207z"/>
<path d="M6366 6391 c-4 -5 7 -12 23 -16 38 -8 77 -39 96 -74 7 -15 36 -88 63
-162 28 -74 100 -268 161 -432 61 -163 114 -309 117 -323 10 -38 35 -26 55 26
10 25 68 173 129 330 61 156 112 286 114 287 2 2 63 -147 136 -332 96 -241
138 -335 148 -333 8 2 31 49 53 108 144 395 282 767 295 800 19 48 71 96 113
105 17 4 29 11 25 16 -7 12 -294 12 -294 0 0 -5 20 -14 45 -20 49 -12 71 -44
59 -85 -16 -56 -238 -662 -244 -669 -4 -5 -17 15 -28 45 -11 29 -60 157 -110
283 -158 403 -158 406 -77 426 25 6 45 15 45 20 0 5 -85 9 -190 9 -104 0 -190
-4 -190 -8 0 -5 18 -14 39 -21 47 -14 64 -38 115 -172 l36 -96 -58 -149 c-33
-82 -76 -193 -97 -246 -21 -54 -39 -97 -41 -95 -1 1 -30 79 -64 172 -195 534
-196 538 -165 568 7 8 30 18 50 21 19 4 35 11 35 16 0 13 -387 13 -394 1z"/>
<path d="M8010 6392 c0 -5 21 -15 48 -23 73 -22 73 -21 70 -510 -3 -395 -4
-418 -22 -438 -11 -12 -37 -24 -58 -27 -88 -15 -26 -24 157 -24 183 0 245 9
157 24 -21 3 -47 15 -58 27 -18 20 -19 41 -19 466 l0 445 23 19 c13 10 39 21
58 25 81 15 21 24 -161 24 -107 0 -195 -4 -195 -8z"/>
<path d="M8570 6393 c0 -5 21 -15 48 -23 74 -23 74 -24 70 -505 -3 -466 -2
-459 -78 -471 -90 -15 -29 -24 155 -24 183 0 245 9 156 24 -26 4 -47 15 -60
32 -20 25 -21 39 -21 241 l0 215 108 -3 c134 -5 155 -16 177 -94 9 -30 21 -55
26 -55 12 0 12 327 0 334 -5 3 -14 -13 -20 -37 -22 -84 -47 -97 -185 -97
l-106 0 0 210 0 210 133 0 c118 0 138 -3 177 -22 52 -27 86 -72 95 -128 13
-77 25 -39 25 80 l0 120 -350 0 c-192 0 -350 -3 -350 -7z"/>
<path d="M9406 6354 c-11 -87 -7 -194 8 -194 8 0 16 16 20 42 9 55 34 95 76
121 28 17 54 22 132 25 l98 4 0 -450 c0 -248 -3 -458 -6 -467 -8 -20 -56 -45
-89 -45 -14 0 -25 -4 -25 -10 0 -6 72 -10 195 -10 123 0 195 4 195 10 0 6 -9
10 -20 10 -29 0 -76 26 -84 45 -3 9 -6 219 -6 467 l0 450 98 -4 c136 -5 188
-41 210 -143 4 -21 13 -40 20 -43 10 -3 12 23 10 115 l-3 118 -411 3 -411 2
-7 -46z"/>
<path d="M10620 6391 c0 -5 14 -12 30 -16 47 -10 84 -56 118 -147 44 -119 312
-841 317 -855 11 -33 33 -6 65 80 19 50 78 202 131 336 l97 243 133 -336 c97
-245 137 -336 148 -334 9 2 75 169 185 466 113 306 180 474 199 497 17 22 42
38 67 45 77 21 42 30 -110 30 -82 0 -150 -4 -150 -8 0 -5 21 -15 47 -23 73
-22 75 -42 18 -202 -101 -283 -197 -542 -204 -550 -8 -8 -240 582 -262 666
-12 41 -11 48 5 66 10 11 35 23 57 26 21 4 37 11 33 16 -7 11 -384 12 -384 1
0 -5 18 -14 40 -21 49 -15 65 -38 115 -172 l37 -98 -71 -179 c-38 -99 -80
-206 -92 -238 -12 -33 -24 -62 -28 -66 -4 -5 -25 45 -48 110 -23 64 -76 211
-118 327 -42 115 -79 224 -82 242 -7 42 15 69 63 77 19 4 34 11 34 16 0 6 -78
10 -195 10 -112 0 -195 -4 -195 -9z"/>
<path d="M12860 6391 c0 -4 20 -16 44 -25 24 -9 51 -28 60 -41 17 -26 283
-644 362 -842 33 -83 54 -123 65 -123 11 0 66 128 200 462 101 254 193 476
204 493 11 16 39 39 63 50 23 11 42 23 42 27 0 5 -65 8 -145 8 -80 0 -145 -4
-145 -9 0 -5 20 -14 45 -20 33 -8 49 -19 57 -37 15 -32 9 -50 -139 -423 -58
-146 -109 -277 -115 -291 l-10 -25 -13 25 c-7 14 -72 168 -144 343 -155 371
-157 383 -78 406 26 8 47 18 47 23 0 4 -90 8 -200 8 -110 0 -200 -4 -200 -9z"/>
<path d="M14000 6390 c0 -5 16 -12 35 -16 20 -3 44 -17 55 -31 19 -25 20 -42
20 -454 0 -292 -4 -436 -11 -452 -12 -26 -47 -47 -79 -47 -11 0 -20 -4 -20
-10 0 -6 131 -10 373 -10 l372 0 15 125 c11 88 12 125 4 125 -6 0 -16 -17 -22
-38 -18 -61 -65 -117 -119 -143 -43 -21 -62 -23 -185 -24 -119 0 -140 2 -155
18 -16 16 -18 39 -18 230 l0 212 80 3 c155 6 199 -13 220 -93 6 -27 17 -51 23
-53 14 -4 17 324 3 332 -5 3 -14 -15 -21 -39 -8 -27 -25 -55 -42 -70 -28 -24
-37 -25 -149 -25 l-119 0 2 208 3 207 128 3 c198 4 254 -21 284 -129 9 -33 20
-59 25 -59 4 0 8 54 8 120 l0 120 -355 0 c-219 0 -355 -4 -355 -10z"/>
<path d="M1449 6303 l-34 -38 38 34 c20 19 37 36 37 38 0 8 -8 0 -41 -34z"/>
<path d="M1382 5911 l-2 -335 82 -85 c318 -330 963 -981 970 -979 14 5 618
630 618 640 0 22 -30 -4 -172 -149 -84 -87 -220 -227 -303 -311 l-150 -153
-135 138 c-74 76 -306 314 -515 527 l-380 389 -5 326 -5 326 -3 -334z"/>
<path d="M2498 5837 l-166 -172 -120 119 c-66 65 -122 114 -125 110 -3 -5 52
-67 120 -139 l126 -129 168 174 168 175 208 -210 c397 -402 988 -1008 1001
-1027 13 -17 2 -31 -120 -156 -73 -75 -309 -317 -522 -537 -214 -220 -394
-401 -400 -403 -11 -2 -60 46 -406 403 -85 88 -227 235 -315 325 l-160 165
-245 2 -245 3 -85 87 c-47 49 -193 201 -325 338 -132 137 -248 256 -258 263
-16 13 -25 38 -9 28 4 -2 9 5 9 16 2 20 1 20 -12 2 -13 -18 -16 -17 -56 24
-32 34 -39 46 -29 55 9 9 11 9 8 -1 -2 -8 5 -19 15 -25 14 -10 20 -9 27 3 7
12 12 12 21 3 13 -13 22 -3 53 66 20 42 20 41 -4 41 -11 0 -20 5 -20 11 0 6
-9 23 -20 37 -18 23 -19 27 -5 34 17 10 20 28 4 28 -5 0 -7 -6 -3 -12 4 -7 4
-10 0 -6 -5 4 -24 -3 -44 -14 l-37 -20 19 21 c10 11 23 18 29 14 6 -4 7 -1 2
7 -5 8 -4 11 2 7 12 -7 36 16 27 25 -3 3 0 9 7 14 7 4 10 3 5 -4 -3 -6 -1 -14
5 -17 7 -5 9 1 7 16 -2 15 2 23 9 21 7 -1 13 2 13 8 0 10 28 9 46 -2 20 -13
11 22 -10 39 -17 15 -19 15 -8 1 8 -10 9 -19 3 -22 -5 -4 -12 -2 -16 4 -4 6
-39 -21 -80 -62 -41 -39 -72 -75 -69 -80 3 -5 10 -5 16 -2 7 4 8 2 4 -5 -6 -8
-12 -9 -20 -2 -9 8 -19 4 -34 -12 -12 -13 -20 -26 -17 -29 3 -3 -7 -5 -22 -4
-56 2 -92 42 626 -694 712 -731 1061 -1088 1381 -1414 l224 -229 91 96 c49 52
270 279 491 503 501 512 974 1005 974 1016 0 4 -8 8 -18 8 -10 0 -47 29 -82
65 -35 35 -67 62 -70 59 -3 -3 3 -12 14 -19 10 -8 15 -19 10 -26 -4 -7 -3 -10
4 -5 17 10 23 -10 7 -24 -12 -10 -16 -9 -20 2 -3 8 -5 21 -3 29 2 8 -4 14 -12
14 -19 0 -26 -51 -9 -71 14 -17 33 -19 23 -1 -4 6 -3 9 1 4 5 -4 17 0 27 10
12 10 18 12 18 4 0 -7 4 -10 9 -7 10 7 64 -44 55 -53 -3 -3 -10 2 -15 11 -5 9
-17 15 -27 13 -9 -2 -19 -4 -22 -4 -3 -1 1 -5 9 -10 12 -8 12 -12 2 -25 -15
-18 -1 -22 17 -4 6 6 14 10 16 7 3 -2 -21 -29 -52 -59 -31 -30 -42 -39 -24
-19 32 35 32 35 12 54 -11 10 -20 13 -20 7 0 -7 5 -12 10 -12 6 0 10 -4 10
-10 0 -5 -13 -7 -30 -3 -24 4 -35 1 -50 -17 -18 -21 -20 -22 -21 -4 0 14 -2
15 -6 4 -4 -8 -13 -20 -21 -26 -9 -6 -12 -16 -7 -24 4 -7 2 -16 -6 -21 -9 -5
-10 -11 -4 -17 6 -5 17 -2 28 10 9 10 13 18 7 18 -5 0 -10 7 -10 15 0 21 13
19 28 -5 8 -13 8 -20 1 -20 -5 0 -8 -4 -4 -10 3 -5 13 -6 23 -3 15 6 15 4 -2
-15 -22 -26 -30 -28 -23 -7 4 8 1 17 -5 21 -14 9 -30 -18 -18 -30 6 -6 10 -15
10 -20 0 -6 -41 30 -90 79 -51 51 -88 96 -85 103 3 7 1 11 -4 8 -5 -3 -168
157 -362 357 -194 199 -437 448 -540 552 -102 105 -235 241 -294 303 -59 61
-111 112 -114 112 -3 0 -81 -78 -173 -173z m-1703 -477 c-3 -5 -12 -10 -18
-10 -7 0 -6 4 3 10 19 12 23 12 15 0z"/>
<path d="M1004 5858 l-19 -23 23 19 c21 18 27 26 19 26 -2 0 -12 -10 -23 -22z"/>
<path d="M920 5773 l-55 -58 58 55 c31 30 57 56 57 57 0 8 -10 -1 -60 -54z"/>
<path d="M750 5593 l-65 -68 68 65 c37 35 67 66 67 67 0 8 -10 -2 -70 -64z"/>
<path d="M1052 5450 c0 -19 2 -27 5 -17 2 9 2 25 0 35 -3 9 -5 1 -5 -18z"/>
<path d="M4916 5431 c-4 -7 -5 -15 -2 -18 9 -9 19 4 14 18 -4 11 -6 11 -12 0z"/>
<path d="M4855 5420 c-3 -6 1 -7 9 -4 18 7 21 14 7 14 -6 0 -13 -4 -16 -10z"/>
<path d="M2036 5378 c10 -14 21 -24 23 -22 3 3 -6 15 -18 27 l-24 22 19 -27z"/>
<path d="M2110 5305 c13 -14 26 -25 28 -25 3 0 -5 11 -18 25 -13 14 -26 25
-28 25 -3 0 5 -11 18 -25z"/>
<path d="M2180 5236 c0 -2 8 -10 18 -17 15 -13 16 -12 3 4 -13 16 -21 21 -21
13z"/>
<path d="M7290 4891 c0 -6 11 -11 24 -11 13 0 27 -7 30 -16 9 -23 7 -367 -2
-381 -4 -7 -19 -16 -32 -22 -19 -7 -1 -10 75 -9 55 0 89 3 75 7 -35 10 -50 46
-50 122 l0 67 80 4 c74 3 82 6 111 34 60 61 47 153 -28 190 -45 22 -283 35
-283 15z m248 -46 c16 -20 22 -39 22 -76 0 -68 -30 -99 -95 -99 -29 0 -45 4
-46 13 -1 15 -1 191 0 196 1 2 22 1 49 -3 33 -4 54 -13 70 -31z"/>
<path d="M8004 4891 c4 -6 14 -11 21 -11 8 0 19 -9 25 -19 12 -23 14 -360 2
-378 -4 -7 -19 -16 -32 -22 -19 -7 -3 -10 70 -10 73 0 89 3 70 10 -13 6 -28
15 -32 22 -12 18 -10 165 3 172 28 18 58 -8 120 -105 l64 -100 60 0 60 0 -32
19 c-17 11 -50 48 -74 83 -23 35 -51 74 -63 87 -12 13 -16 25 -11 27 75 28
111 98 82 159 -26 55 -64 68 -211 73 -94 3 -127 1 -122 -7z m243 -46 c33 -37
32 -107 -2 -140 -19 -20 -34 -25 -75 -25 l-50 0 0 93 c0 52 3 97 8 101 4 4 27
6 52 3 32 -4 51 -13 67 -32z"/>
<path d="M8900 4889 c-111 -44 -167 -180 -125 -300 33 -92 112 -144 221 -143
58 0 78 4 117 27 157 92 147 334 -17 408 -45 20 -153 25 -196 8z m178 -34
c107 -90 84 -332 -36 -382 -110 -46 -210 66 -200 225 7 123 57 182 155 182 40
0 58 -5 81 -25z"/>
<path d="M9594 4891 c4 -6 15 -11 26 -11 10 0 21 -7 24 -16 3 -9 6 -99 6 -200
l0 -185 -32 -14 c-31 -13 -22 -14 107 -14 120 -1 146 2 185 20 91 41 130 102
130 204 0 102 -39 162 -130 202 -44 20 -327 32 -316 14z m241 -22 c95 -26 152
-141 126 -253 -21 -93 -84 -146 -170 -146 -74 0 -71 -10 -71 205 0 145 3 195
13 198 21 9 60 7 102 -4z"/>
<path d="M10410 4895 c0 -3 11 -10 24 -15 24 -9 24 -10 27 -174 4 -183 10
-200 79 -241 47 -27 153 -27 200 0 68 41 74 59 80 238 5 155 6 162 28 173 42
21 36 24 -42 24 -49 0 -75 -4 -71 -10 3 -5 15 -10 25 -10 28 0 32 -28 28 -188
-4 -163 -13 -187 -88 -211 -38 -12 -49 -12 -83 0 -75 26 -82 47 -82 232 0 160
0 162 23 165 12 2 22 8 22 13 0 5 -38 9 -85 9 -47 0 -85 -2 -85 -5z"/>
<path d="M11364 4876 c-89 -41 -130 -121 -121 -233 12 -153 151 -235 321 -189
60 16 64 20 75 55 13 46 14 51 3 51 -5 0 -14 -11 -20 -25 -27 -59 -134 -84
-208 -49 -49 23 -85 89 -91 167 -7 85 11 143 57 189 35 36 41 38 98 38 51 0
65 -4 93 -27 17 -15 38 -42 45 -60 8 -18 16 -33 19 -33 3 0 5 32 5 71 0 62 -2
70 -15 59 -12 -10 -25 -10 -59 -1 -73 18 -145 14 -202 -13z"/>
<path d="M12017 4893 c-10 -10 -8 -113 2 -113 5 0 11 13 14 29 9 45 32 61 88
61 l49 0 0 -195 0 -196 -32 -14 c-31 -13 -27 -14 67 -13 55 0 91 3 80 5 -44
11 -45 17 -45 219 l0 194 49 0 c56 0 79 -16 88 -61 3 -16 9 -29 14 -29 10 0
12 44 3 89 l-6 31 -183 0 c-100 0 -185 -3 -188 -7z"/>
<path d="M12824 4881 c-59 -36 -69 -123 -20 -172 13 -13 54 -40 91 -59 74 -39
105 -70 105 -107 0 -39 -18 -62 -59 -74 -54 -16 -120 13 -144 64 -9 19 -17 40
-17 46 0 6 -3 11 -7 11 -5 0 -8 -31 -8 -68 l0 -68 35 -1 c182 -9 215 -2 245
57 40 77 9 139 -96 194 -97 51 -119 72 -119 111 0 44 27 65 82 65 53 0 95 -32
104 -80 11 -52 24 -33 24 36 0 55 -2 65 -14 55 -10 -8 -21 -8 -40 -1 -44 17
-127 12 -162 -9z"/>
<path d="M3330 4597 c0 -231 -1 -243 -20 -255 -12 -7 -20 -8 -20 -2 0 5 5 10
10 10 6 0 9 46 8 123 0 67 -3 107 -5 90 -2 -18 -7 -33 -11 -34 -28 -3 -57 -11
-66 -18 -17 -13 -85 -23 -99 -14 -6 4 -14 8 -17 8 -3 0 -14 6 -25 12 -19 12
-19 14 8 17 6 0 12 6 12 11 0 17 48 75 62 75 7 0 13 7 13 16 0 9 -52 -37 -115
-102 l-114 -119 -1 -227 c0 -145 -4 -228 -10 -228 -5 0 -10 -10 -9 -22 0 -18
45 24 204 187 l205 210 0 253 c0 138 -2 252 -5 252 -3 0 -5 -109 -5 -243z
m-267 -89 c-4 -7 -6 -25 -5 -39 2 -14 -4 -31 -12 -38 -9 -7 -13 -18 -9 -25 4
-6 -5 -3 -20 7 -15 10 -33 15 -40 11 -7 -4 10 16 38 45 49 51 63 62 48 39z
m50 -11 c4 3 7 1 7 -5 0 -15 -17 -16 -25 -2 -4 6 -11 7 -17 4 -7 -4 -8 -2 -4
5 6 8 12 9 20 2 7 -6 16 -8 19 -4z m184 -99 c-3 -8 -6 -5 -6 6 -1 11 2 17 5
13 3 -3 4 -12 1 -19z m-107 -182 c0 -2 -8 -10 -17 -17 -16 -13 -17 -12 -4 4
13 16 21 21 21 13z m-166 -170 c-3 -8 -13 -17 -22 -21 -13 -5 -13 -2 3 15 21
24 26 25 19 6z"/>
<path d="M3006 4428 c3 -4 9 -8 15 -8 5 0 9 4 9 8 0 5 -7 9 -15 9 -8 0 -12 -4
-9 -9z"/>
<path d="M5610 4735 l0 -25 663 2 662 3 3 23 3 22 -665 0 -666 0 0 -25z"/>
<path d="M13440 4735 l0 -25 663 2 c654 3 662 3 662 23 0 20 -8 20 -662 23
l-663 2 0 -25z"/>
<path d="M4280 4739 c0 -6 -4 -8 -9 -4 -6 3 -15 -3 -20 -14 -14 -26 -15 -26
14 -27 14 -1 25 2 25 7 0 5 -6 9 -12 9 -8 1 -5 7 6 15 10 8 24 12 30 8 6 -3 7
-2 3 2 -11 13 -37 15 -37 4z"/>
<path d="M4200 4730 c0 -5 5 -10 11 -10 5 0 7 5 4 10 -3 6 -8 10 -11 10 -2 0
-4 -4 -4 -10z"/>
<path d="M5610 4600 c0 -20 7 -20 658 -20 362 0 661 3 665 6 3 3 3 12 0 20 -4
12 -57 14 -312 12 -168 0 -286 -4 -261 -7 l45 -6 -64 -8 c-82 -9 -359 -9 -442
0 -58 7 -61 8 -29 14 19 3 -31 7 -112 8 -142 1 -148 0 -148 -19z"/>
<path d="M13440 4600 c0 -20 7 -20 660 -20 653 0 660 0 660 20 0 20 -6 20
-317 18 -175 -1 -286 -4 -248 -7 l70 -6 -100 -7 c-127 -10 -393 -10 -465 -1
l-55 8 40 6 c23 3 -22 7 -102 8 -137 1 -143 0 -143 -19z"/>
<path d="M3168 4593 c6 -2 9 -10 6 -15 -4 -7 -2 -8 5 -4 13 9 5 26 -12 25 -9
0 -8 -2 1 -6z"/>
<path d="M2934 4195 c0 -126 2 -177 3 -112 2 65 2 168 0 230 -1 62 -3 9 -3
-118z"/>
<path d="M8442 4005 c2 -3 18 -6 34 -7 39 -3 44 -12 44 -85 l0 -63 60 0 c54 0
62 -3 70 -22 7 -18 9 -13 9 27 -1 28 -3 43 -6 35 -9 -24 -25 -30 -75 -30 l-48
0 0 70 0 71 67 -3 c61 -3 69 -6 80 -28 l13 -25 0 33 0 32 -127 0 c-69 0 -124
-2 -121 -5z"/>
<path d="M8994 3985 c-21 -21 -24 -31 -19 -58 9 -43 29 -63 89 -93 57 -28 76
-48 76 -79 0 -68 -118 -74 -154 -8 l-16 28 2 -37 c2 -33 5 -36 37 -42 78 -13
111 -7 142 23 19 20 29 39 28 58 -1 28 -1 28 -8 3 l-7 -24 -16 23 c-20 28 -15
43 10 34 15 -6 15 -4 -2 15 -20 24 -116 76 -116 65 0 -5 -5 0 -11 10 -6 9 -15
15 -20 11 -6 -4 -3 -14 8 -26 18 -20 18 -21 -4 -7 -13 8 -24 22 -24 31 -1 10
-2 24 -3 31 -4 25 8 31 16 7 6 -21 7 -19 3 7 -4 30 -2 33 30 39 20 3 48 3 63
0 15 -4 32 -7 39 -8 7 -1 10 -4 8 -8 -2 -4 0 -20 5 -36 8 -27 8 -26 9 16 l1
45 -70 3 c-64 3 -72 1 -96 -23z m91 -135 c3 -6 -1 -7 -9 -4 -18 7 -21 14 -7
14 6 0 13 -4 16 -10z m46 -15 c5 4 6 -1 2 -10 -5 -13 -7 -14 -14 -3 -5 7 -8
18 -8 23 0 6 3 4 6 -3 2 -6 9 -10 14 -7z m15 -113 c-17 -16 -18 -16 -5 5 7 12
15 20 18 17 3 -2 -3 -12 -13 -22z"/>
<path d="M9423 3973 c-1 -31 1 -34 9 -18 17 31 39 45 75 45 l34 0 -3 -147 -3
-147 -25 -7 c-15 -4 5 -7 50 -7 45 0 65 3 50 7 -24 7 -25 9 -30 126 -4 66 -7
107 -9 90 -2 -26 -3 -28 -11 -10 -5 11 -9 36 -9 56 -1 34 1 36 32 37 61 3 88
-8 103 -41 l13 -32 1 43 0 42 -138 0 -138 0 -1 -37z m147 -158 c0 -30 -4 -55
-10 -55 -11 0 -14 69 -4 94 11 27 14 18 14 -39z"/>
<path d="M10263 3988 c-28 -32 -40 -58 -14 -30 13 13 34 22 54 23 27 0 29 2
12 9 -17 7 -14 9 13 9 23 1 31 -3 26 -11 -4 -7 -3 -8 5 -4 6 4 18 4 24 -1 7
-4 4 0 -6 10 -28 25 -89 22 -114 -5z"/>
<path d="M10715 3994 c-34 -34 -46 -63 -51 -125 -5 -68 6 -126 24 -122 6 2 9
-3 6 -11 -7 -18 39 -46 75 -46 18 0 41 10 58 26 15 15 19 20 9 13 -17 -13 -18
-12 -12 11 6 21 4 20 -13 -7 -26 -42 -63 -44 -88 -7 -26 40 -30 188 -6 234 23
45 57 50 97 15 16 -14 31 -25 33 -25 8 0 1 11 -22 35 -30 29 -85 34 -110 9z
m-24 -57 c-10 -9 -11 -8 -5 6 3 10 9 15 12 12 3 -3 0 -11 -7 -18z m-10 -114
c-7 -13 -9 -6 -6 27 4 69 8 79 12 33 2 -24 0 -51 -6 -60z m12 -43 c3 -11 1
-18 -4 -14 -5 3 -9 12 -9 20 0 20 7 17 13 -6z"/>
<path d="M11193 4003 c20 -2 37 -8 37 -12 0 -4 -17 -6 -37 -4 l-38 2 34 -8
c41 -11 51 -25 51 -74 0 -50 -11 -69 -84 -147 l-61 -65 94 -3 c51 -1 95 -1 96
0 2 2 6 17 10 33 5 24 4 27 -5 13 -9 -14 -25 -18 -76 -18 -36 0 -63 -4 -60 -8
2 -4 -4 -8 -14 -8 -15 0 -10 10 23 46 97 104 94 100 91 138 -1 20 -6 53 -10
72 l-7 35 21 -25 c12 -14 21 -20 22 -13 0 23 -52 53 -89 51 l-36 -1 38 -4z"/>
<path d="M11586 3977 c-25 -62 -28 -77 -14 -78 7 0 4 -4 -7 -9 -17 -7 -15 -9
11 -9 40 -1 96 -39 108 -74 14 -38 -3 -79 -38 -96 -25 -12 -33 -11 -63 3 -38
18 -61 13 -42 -10 7 -8 30 -14 55 -14 34 0 51 7 78 30 40 36 51 70 36 116 -13
39 -64 74 -108 74 -29 0 -30 1 -19 30 11 28 14 30 68 30 48 0 57 3 62 20 5 18
0 20 -54 20 -57 0 -59 -1 -73 -33z m111 17 c-3 -3 -12 -4 -19 -1 -8 3 -5 6 6
6 11 1 17 -2 13 -5z m-29 -121 c30 -29 48 -63 32 -63 -5 0 -12 9 -15 20 -4 11
-28 31 -53 45 -42 21 -44 24 -20 25 16 0 38 -11 56 -27z m-93 -171 c-3 -3 -11
0 -18 7 -9 10 -8 11 6 5 10 -3 15 -9 12 -12z"/>
<path d="M11121 3974 c-11 -15 -21 -32 -21 -38 0 -6 8 1 17 14 9 14 21 28 27
32 6 4 8 10 4 13 -3 3 -15 -6 -27 -21z"/>
<path d="M8493 3925 c0 -27 2 -38 4 -22 2 15 2 37 0 50 -2 12 -4 0 -4 -28z"/>
<path d="M10401 3928 c0 -20 -6 -40 -13 -44 -7 -5 -9 -2 -6 7 3 8 2 23 -3 34
-6 16 -8 14 -8 -13 -1 -47 -25 -88 -94 -159 l-60 -63 97 0 c94 0 97 1 106 26
14 35 13 38 -6 20 -11 -11 -35 -16 -80 -16 -36 0 -64 -4 -64 -10 0 -5 -5 -10
-10 -10 -6 0 23 39 65 86 77 88 90 114 82 155 -3 17 -5 12 -6 -13z m4 -218
c-3 -5 -12 -10 -18 -10 -7 0 -6 4 3 10 19 12 23 12 15 0z"/>
<path d="M10820 3941 c0 -6 3 -11 8 -11 4 0 6 -37 6 -82 -1 -46 0 -71 3 -55 6
38 23 23 18 -16 -4 -28 -4 -29 4 -7 5 14 9 52 10 85 0 59 0 59 -14 30 l-13
-30 -1 33 c-1 17 4 32 9 32 6 0 10 5 10 12 0 6 -3 8 -7 5 -3 -4 -12 -2 -20 4
-9 9 -13 8 -13 0z"/>
<path d="M11271 3923 c0 -12 -4 -30 -7 -40 -5 -14 -4 -15 5 -7 7 6 11 24 8 40
-3 21 -4 23 -6 7z"/>
<path d="M8491 3785 c-2 -67 -7 -80 -36 -88 -11 -3 40 -4 114 -3 115 1 134 3
136 17 2 9 6 27 9 40 6 20 3 18 -11 -6 -9 -16 -17 -32 -16 -35 2 -8 -88 -11
-124 -5 l-33 6 -1 67 -1 67 -11 -45 -11 -45 -7 45 c-6 45 -6 45 -8 -15z"/>
</g>
</svg>
